<mxfile host="app.diagrams.net" agent="Mozilla/5.0 (X11; Linux x86_64) AppleWebKit/537.36 (KHTML, like Gecko) Chrome/129.0.0.0 Safari/537.36" version="24.7.16">
  <diagram name="Page-1" id="BQHZMoKJ2xb_PuEYL6pM">
    <mxGraphModel dx="880" dy="516" grid="1" gridSize="10" guides="1" tooltips="1" connect="1" arrows="1" fold="1" page="1" pageScale="1" pageWidth="850" pageHeight="1100" math="0" shadow="0">
      <root>
        <mxCell id="0" />
        <mxCell id="1" parent="0" />
        <mxCell id="9m1n9IxRM80_8m17cTGI-5" value="" style="rounded=0;whiteSpace=wrap;html=1;rotation=90;" parent="1" vertex="1">
          <mxGeometry x="220" y="230" width="430" height="240" as="geometry" />
        </mxCell>
        <mxCell id="9m1n9IxRM80_8m17cTGI-6" value="login" style="ellipse;whiteSpace=wrap;html=1;" parent="1" vertex="1">
          <mxGeometry x="365" y="170" width="120" height="40" as="geometry" />
        </mxCell>
        <mxCell id="9m1n9IxRM80_8m17cTGI-7" value="manage students" style="ellipse;whiteSpace=wrap;html=1;" parent="1" vertex="1">
          <mxGeometry x="365" y="230" width="120" height="40" as="geometry" />
        </mxCell>
        <mxCell id="9m1n9IxRM80_8m17cTGI-8" value="manage teachers" style="ellipse;whiteSpace=wrap;html=1;" parent="1" vertex="1">
          <mxGeometry x="360" y="300" width="120" height="40" as="geometry" />
        </mxCell>
        <mxCell id="9m1n9IxRM80_8m17cTGI-9" value="manage subjects" style="ellipse;whiteSpace=wrap;html=1;" parent="1" vertex="1">
          <mxGeometry x="365" y="360" width="120" height="40" as="geometry" />
        </mxCell>
        <mxCell id="9m1n9IxRM80_8m17cTGI-10" value="manage attendace" style="ellipse;whiteSpace=wrap;html=1;" parent="1" vertex="1">
          <mxGeometry x="365" y="430" width="120" height="40" as="geometry" />
        </mxCell>
        <mxCell id="9m1n9IxRM80_8m17cTGI-11" value="view notice" style="ellipse;whiteSpace=wrap;html=1;" parent="1" vertex="1">
          <mxGeometry x="365" y="490" width="120" height="40" as="geometry" />
        </mxCell>
        <mxCell id="9m1n9IxRM80_8m17cTGI-12" value="Admin" style="shape=umlActor;verticalLabelPosition=bottom;verticalAlign=top;html=1;outlineConnect=0;" parent="1" vertex="1">
          <mxGeometry x="90" y="190" width="90" height="100" as="geometry" />
        </mxCell>
        <mxCell id="9m1n9IxRM80_8m17cTGI-13" value="Teacher" style="shape=umlActor;verticalLabelPosition=bottom;verticalAlign=top;html=1;outlineConnect=0;" parent="1" vertex="1">
          <mxGeometry x="90" y="370" width="80" height="110" as="geometry" />
        </mxCell>
        <mxCell id="9m1n9IxRM80_8m17cTGI-14" value="Student" style="shape=umlActor;verticalLabelPosition=bottom;verticalAlign=top;html=1;outlineConnect=0;rotation=-1;" parent="1" vertex="1">
          <mxGeometry x="620" y="310" width="90" height="110" as="geometry" />
        </mxCell>
        <mxCell id="9m1n9IxRM80_8m17cTGI-25" value="" style="endArrow=none;html=1;rounded=0;entryX=0;entryY=0.5;entryDx=0;entryDy=0;exitX=0.5;exitY=0.5;exitDx=0;exitDy=0;exitPerimeter=0;" parent="1" source="9m1n9IxRM80_8m17cTGI-12" target="9m1n9IxRM80_8m17cTGI-6" edge="1">
          <mxGeometry width="50" height="50" relative="1" as="geometry">
            <mxPoint x="170" y="230" as="sourcePoint" />
            <mxPoint x="220" y="180" as="targetPoint" />
          </mxGeometry>
        </mxCell>
        <mxCell id="9m1n9IxRM80_8m17cTGI-27" value="" style="endArrow=none;html=1;rounded=0;entryX=0;entryY=0.5;entryDx=0;entryDy=0;exitX=0.5;exitY=0.5;exitDx=0;exitDy=0;exitPerimeter=0;" parent="1" source="9m1n9IxRM80_8m17cTGI-12" target="9m1n9IxRM80_8m17cTGI-7" edge="1">
          <mxGeometry width="50" height="50" relative="1" as="geometry">
            <mxPoint x="135" y="230" as="sourcePoint" />
            <mxPoint x="375" y="200" as="targetPoint" />
          </mxGeometry>
        </mxCell>
        <mxCell id="9m1n9IxRM80_8m17cTGI-33" value="" style="endArrow=none;html=1;rounded=0;entryX=0;entryY=0.5;entryDx=0;entryDy=0;" parent="1" target="9m1n9IxRM80_8m17cTGI-8" edge="1">
          <mxGeometry width="50" height="50" relative="1" as="geometry">
            <mxPoint x="130" y="220" as="sourcePoint" />
            <mxPoint x="390" y="290" as="targetPoint" />
          </mxGeometry>
        </mxCell>
        <mxCell id="9m1n9IxRM80_8m17cTGI-34" value="" style="endArrow=none;html=1;rounded=0;entryX=0;entryY=0.5;entryDx=0;entryDy=0;" parent="1" target="9m1n9IxRM80_8m17cTGI-9" edge="1">
          <mxGeometry width="50" height="50" relative="1" as="geometry">
            <mxPoint x="130" y="220" as="sourcePoint" />
            <mxPoint x="360" y="320" as="targetPoint" />
            <Array as="points">
              <mxPoint x="240" y="300" />
            </Array>
          </mxGeometry>
        </mxCell>
        <mxCell id="9m1n9IxRM80_8m17cTGI-36" value="" style="endArrow=none;html=1;rounded=0;entryX=0;entryY=0.5;entryDx=0;entryDy=0;" parent="1" target="9m1n9IxRM80_8m17cTGI-11" edge="1">
          <mxGeometry width="50" height="50" relative="1" as="geometry">
            <mxPoint x="130" y="220" as="sourcePoint" />
            <mxPoint x="380" y="340" as="targetPoint" />
          </mxGeometry>
        </mxCell>
        <mxCell id="9m1n9IxRM80_8m17cTGI-39" value="" style="endArrow=none;html=1;rounded=0;exitX=0.5;exitY=0.5;exitDx=0;exitDy=0;exitPerimeter=0;" parent="1" source="9m1n9IxRM80_8m17cTGI-13" target="9m1n9IxRM80_8m17cTGI-10" edge="1">
          <mxGeometry width="50" height="50" relative="1" as="geometry">
            <mxPoint x="125" y="440" as="sourcePoint" />
            <mxPoint x="365" y="410" as="targetPoint" />
          </mxGeometry>
        </mxCell>
        <mxCell id="9m1n9IxRM80_8m17cTGI-40" value="" style="endArrow=none;html=1;rounded=0;entryX=0;entryY=0.5;entryDx=0;entryDy=0;exitX=0.5;exitY=0.5;exitDx=0;exitDy=0;exitPerimeter=0;" parent="1" source="9m1n9IxRM80_8m17cTGI-13" target="9m1n9IxRM80_8m17cTGI-11" edge="1">
          <mxGeometry width="50" height="50" relative="1" as="geometry">
            <mxPoint x="140" y="445" as="sourcePoint" />
            <mxPoint x="376" y="457" as="targetPoint" />
          </mxGeometry>
        </mxCell>
        <mxCell id="9m1n9IxRM80_8m17cTGI-41" value="" style="endArrow=none;html=1;rounded=0;exitX=0.5;exitY=0.5;exitDx=0;exitDy=0;exitPerimeter=0;entryX=0;entryY=0.675;entryDx=0;entryDy=0;entryPerimeter=0;" parent="1" source="9m1n9IxRM80_8m17cTGI-13" target="9m1n9IxRM80_8m17cTGI-6" edge="1">
          <mxGeometry width="50" height="50" relative="1" as="geometry">
            <mxPoint x="150" y="455" as="sourcePoint" />
            <mxPoint x="360" y="200" as="targetPoint" />
          </mxGeometry>
        </mxCell>
        <mxCell id="9m1n9IxRM80_8m17cTGI-42" value="" style="endArrow=none;html=1;rounded=0;exitX=1;exitY=0.5;exitDx=0;exitDy=0;entryX=0.5;entryY=0.5;entryDx=0;entryDy=0;entryPerimeter=0;" parent="1" source="9m1n9IxRM80_8m17cTGI-6" target="9m1n9IxRM80_8m17cTGI-14" edge="1">
          <mxGeometry width="50" height="50" relative="1" as="geometry">
            <mxPoint x="557.5" y="369" as="sourcePoint" />
            <mxPoint x="792.5" y="131" as="targetPoint" />
          </mxGeometry>
        </mxCell>
        <mxCell id="9m1n9IxRM80_8m17cTGI-43" value="" style="endArrow=none;html=1;rounded=0;exitX=1;exitY=0.5;exitDx=0;exitDy=0;entryX=0.5;entryY=0.5;entryDx=0;entryDy=0;entryPerimeter=0;" parent="1" source="9m1n9IxRM80_8m17cTGI-11" edge="1">
          <mxGeometry width="50" height="50" relative="1" as="geometry">
            <mxPoint x="485" y="190" as="sourcePoint" />
            <mxPoint x="665" y="365" as="targetPoint" />
          </mxGeometry>
        </mxCell>
      </root>
    </mxGraphModel>
  </diagram>
</mxfile>
